<?xml version="1.0" standalone="no"?>
<!DOCTYPE svg PUBLIC "-//W3C//DTD SVG 20010904//EN"
 "http://www.w3.org/TR/2001/REC-SVG-20010904/DTD/svg10.dtd">
<svg version="1.0" xmlns="http://www.w3.org/2000/svg"
 width="1024.000000pt" height="1024.000000pt" viewBox="0 0 1024.000000 1024.000000"
 preserveAspectRatio="xMidYMid meet">
<metadata>
Created by potrace 1.11, written by Peter Selinger 2001-2013
</metadata>
<g transform="translate(0.000000,1024.000000) scale(0.100000,-0.100000)"
fill="#000000" stroke="none">
<path d="M4938 9505 c-2 -2 -57 -6 -123 -9 -120 -6 -184 -12 -240 -21 -16 -2
-52 -7 -80 -10 -27 -3 -77 -11 -110 -16 -33 -6 -73 -13 -90 -16 -55 -8 -209
-44 -305 -70 -52 -14 -111 -29 -130 -34 -42 -10 -292 -98 -375 -132 -550 -224
-1091 -586 -1486 -992 -80 -83 -186 -196 -204 -218 -23 -27 -140 -173 -148
-182 -51 -65 -191 -265 -222 -317 -5 -9 -41 -68 -79 -130 -70 -114 -182 -329
-245 -468 -119 -264 -236 -638 -287 -920 -13 -71 -24 -140 -29 -184 -3 -27 -7
-51 -9 -55 -2 -3 -7 -40 -10 -82 -4 -42 -8 -85 -10 -96 -23 -117 -23 -718 -1
-857 2 -12 6 -48 9 -81 8 -79 14 -126 27 -205 6 -36 13 -78 16 -95 23 -145
110 -474 171 -647 91 -256 243 -580 363 -772 28 -45 56 -90 62 -101 30 -49
166 -247 220 -320 187 -249 451 -526 677 -710 47 -38 87 -72 90 -76 3 -3 52
-40 110 -82 58 -42 110 -80 115 -85 20 -16 134 -92 139 -92 2 0 31 -17 63 -39
181 -119 525 -290 760 -377 247 -91 567 -178 768 -209 144 -22 238 -35 295
-41 36 -3 79 -8 95 -11 56 -8 650 -10 720 -3 39 5 102 11 140 14 39 4 81 8 95
11 14 2 45 7 70 10 25 3 54 7 65 9 11 2 54 9 95 16 137 22 432 97 590 150 336
114 639 258 940 448 150 95 420 288 450 322 3 3 30 25 60 50 185 150 543 529
660 700 14 19 28 40 33 45 137 171 372 571 477 815 18 41 40 93 50 115 9 22
27 67 39 100 13 33 27 69 31 80 37 94 132 421 155 535 23 115 40 214 50 283 4
27 8 58 11 70 2 12 6 53 10 92 3 38 8 78 10 88 21 111 20 749 -1 859 -2 11 -7
49 -10 86 -3 37 -8 74 -10 82 -2 8 -7 38 -10 65 -12 99 -63 341 -107 505 -168
631 -542 1298 -1011 1804 -92 100 -140 147 -262 262 -235 221 -661 516 -974
673 -444 224 -951 382 -1366 426 -33 4 -67 8 -75 10 -8 2 -44 6 -80 9 -36 3
-96 9 -135 12 -67 6 -502 13 -507 9z m592 -1480 c677 -98 1304 -529 1608
-1106 123 -233 173 -450 167 -734 -1 -93 -6 -183 -9 -200 -48 -228 -98 -370
-185 -520 -80 -139 -215 -279 -426 -441 -76 -59 -208 -144 -222 -144 -3 0 -14
-6 -22 -14 -9 -7 -43 -28 -75 -45 -206 -111 -335 -231 -444 -411 -46 -76 -62
-119 -68 -180 -3 -25 -9 -62 -15 -82 -13 -49 -77 -104 -132 -114 -72 -12
-1147 -8 -1193 5 -52 14 -110 75 -120 125 -7 38 0 388 9 421 3 11 10 40 17 65
61 235 201 438 465 672 129 115 257 200 436 289 207 102 305 164 380 239 59
59 113 146 124 199 2 9 8 36 14 61 5 24 9 80 8 125 -2 66 -8 91 -32 139 -66
132 -253 266 -440 315 -153 40 -356 34 -523 -14 -164 -48 -315 -174 -554 -460
-55 -66 -117 -139 -137 -162 -20 -24 -51 -48 -71 -55 -35 -11 -100 -13 -131
-3 -14 5 -339 244 -384 282 -5 5 -101 77 -212 161 -234 176 -259 199 -273 253
-15 54 -3 92 66 202 267 431 648 774 1054 949 99 43 236 95 271 103 13 3 58
14 99 25 114 31 263 54 420 66 52 3 96 7 98 9 10 9 339 -6 432 -20z m215
-4378 c38 -20 79 -64 94 -102 9 -23 11 -185 9 -631 l-3 -601 -29 -37 c-59 -78
-38 -75 -696 -75 -658 0 -637 -3 -696 75 l-29 37 0 617 0 616 24 36 c26 37 89
76 131 80 14 2 282 2 595 2 493 -1 575 -4 600 -17z"/>
</g>
</svg>
